<?xml version="1.0" encoding="UTF-8" standalone="no"?>
<!-- Created with Inkscape (http://www.inkscape.org/) -->

<svg
   xmlns:dc="http://purl.org/dc/elements/1.1/"
   xmlns:cc="http://creativecommons.org/ns#"
   xmlns:rdf="http://www.w3.org/1999/02/22-rdf-syntax-ns#"
   xmlns:svg="http://www.w3.org/2000/svg"
   xmlns="http://www.w3.org/2000/svg"
   xmlns:xlink="http://www.w3.org/1999/xlink"
   xmlns:sodipodi="http://sodipodi.sourceforge.net/DTD/sodipodi-0.dtd"
   xmlns:inkscape="http://www.inkscape.org/namespaces/inkscape"
   width="68.22113mm"
   height="15.321026mm"
   viewBox="0 0 68.22113 15.321026"
   version="1.1"
   id="svg8"
   inkscape:version="0.92.5 (2060ec1f9f, 2020-04-08)"
   sodipodi:docname="logo.svg">
  <defs
     id="defs2">
    <clipPath
       clipPathUnits="userSpaceOnUse"
       id="clipPath3804">
      <use
         x="0"
         y="0"
         xlink:href="#g3800"
         id="use3806"
         width="100%"
         height="100%" />
    </clipPath>
  </defs>
  <sodipodi:namedview
     id="base"
     pagecolor="#ffffff"
     bordercolor="#666666"
     borderopacity="1.0"
     inkscape:pageopacity="0.0"
     inkscape:pageshadow="2"
     inkscape:zoom="0.98994949"
     inkscape:cx="2.926987"
     inkscape:cy="112.20682"
     inkscape:document-units="mm"
     inkscape:current-layer="layer1"
     showgrid="false"
     inkscape:window-width="1366"
     inkscape:window-height="704"
     inkscape:window-x="0"
     inkscape:window-y="27"
     inkscape:window-maximized="1" />
  <metadata
     id="metadata5">
    <rdf:RDF>
      <cc:Work
         rdf:about="">
        <dc:format>image/svg+xml</dc:format>
        <dc:type
           rdf:resource="http://purl.org/dc/dcmitype/StillImage" />
        <dc:title></dc:title>
      </cc:Work>
    </rdf:RDF>
  </metadata>
  <g
     inkscape:label="Layer 1"
     inkscape:groupmode="layer"
     id="layer1"
     transform="translate(-84.449586,-57.697239)">
    <g
       id="g3802"
       clip-path="url(#clipPath3804)"
       transform="translate(0.53453906,0.53453906)">
      <g
         inkscape:label="Clip"
         id="g3800">
        <g
           id="g93">
          <path
             style="font-style:normal;font-variant:normal;font-weight:bold;font-stretch:normal;font-size:16.93333244px;line-height:1.25;font-family:Corbel;-inkscape-font-specification:'Corbel Bold';letter-spacing:0px;word-spacing:0px;fill:#000000;fill-opacity:1;stroke:none;stroke-width:0.26458332"
             d="m 89.678003,57.1627 c -0.915019,0.0055 -1.736331,0.159848 -2.463932,0.46302 -0.722093,0.303168 -1.325674,0.719336 -1.810742,1.248503 -0.479558,0.529167 -0.848874,1.154795 -1.107943,1.876888 -0.253561,0.722088 -0.380339,1.504818 -0.380339,2.348177 0,0.821314 0.11851,1.57372 0.355534,2.257227 0.242533,0.677992 0.600824,1.262284 1.07487,1.752864 0.479557,0.485074 1.074867,0.862653 1.785938,1.132747 0.711065,0.264586 1.535133,0.396875 2.4722,0.396875 0.479557,0 0.942578,-0.03309 1.389063,-0.09922 0.446484,-0.06064 0.86265,-0.146069 1.248502,-0.256315 v -1.744597 c -0.380338,0.126794 -0.788239,0.223256 -1.223698,0.289388 -0.435462,0.06613 -0.862653,0.09922 -1.281575,0.09922 -0.58429,0 -1.107946,-0.08269 -1.570964,-0.248047 -0.457509,-0.170881 -0.846116,-0.421682 -1.16582,-0.752409 -0.319707,-0.330734 -0.564997,-0.741386 -0.735873,-1.231966 -0.170878,-0.496094 -0.256315,-1.069358 -0.256315,-1.719791 0,-0.655947 0.0937,-1.237478 0.28112,-1.744597 0.187412,-0.512627 0.446482,-0.942578 0.777214,-1.289844 0.33624,-0.347265 0.735872,-0.611848 1.198893,-0.793749 0.468532,-0.181902 0.978405,-0.272852 1.529622,-0.272852 0.363802,0 0.735873,0.02755 1.116211,0.08268 0.380339,0.05512 0.790993,0.151583 1.231966,0.289388 V 57.526502 C 91.805692,57.410709 91.428111,57.322518 91.009188,57.261918 90.590263,57.195786 90.146535,57.1627 89.678003,57.1627 Z m 7.987109,3.059244 c -0.611849,0 -1.16582,0.101979 -1.661914,0.305925 -0.496096,0.19844 -0.92053,0.482314 -1.273307,0.851627 -0.347268,0.369314 -0.614606,0.813038 -0.802018,1.331185 -0.187415,0.518139 -0.28112,1.091404 -0.28112,1.719792 0,0.628385 0.09095,1.20165 0.272852,1.719792 0.187412,0.518138 0.45475,0.961863 0.802018,1.331184 0.347263,0.369314 0.768942,0.65595 1.265039,0.859896 0.501605,0.19844 1.066599,0.297656 1.694987,0.297656 0.611846,0 1.16582,-0.09922 1.661914,-0.297656 0.496094,-0.203946 0.917777,-0.490582 1.265037,-0.859896 0.35278,-0.369321 0.62287,-0.813046 0.81029,-1.331184 0.18741,-0.518142 0.28112,-1.091407 0.28112,-1.719792 0,-0.628388 -0.0937,-1.201653 -0.28112,-1.719792 -0.18191,-0.518147 -0.44649,-0.961871 -0.79375,-1.331185 -0.34727,-0.369313 -0.771704,-0.653187 -1.273309,-0.851627 -0.496096,-0.203946 -1.058333,-0.305925 -1.686719,-0.305925 z m 8.855278,0 c -0.44649,0 -0.88195,0.09371 -1.30638,0.28112 -0.41893,0.181901 -0.791,0.454755 -1.11622,0.818555 -0.32521,0.363807 -0.58704,0.818557 -0.78548,1.364258 -0.19292,0.540191 -0.28939,1.171331 -0.28939,1.893424 0,0.722088 0.0965,1.33945 0.28939,1.852083 0.19293,0.512633 0.44649,0.934313 0.76068,1.265039 0.31419,0.325213 0.67248,0.564997 1.07487,0.719336 0.4079,0.148834 0.82407,0.223242 1.2485,0.223242 0.23702,0 0.46853,-0.02481 0.69453,-0.07441 0.226,-0.04409 0.43271,-0.104727 0.62012,-0.181901 0.18741,-0.08268 0.35829,-0.170875 0.51263,-0.264583 0.15985,-0.09922 0.30041,-0.198437 0.42168,-0.297656 h 0.0165 c -0.011,0.110246 -0.0193,0.248052 -0.0248,0.413411 v 0.405143 0.19017 c 0,0.68902 -0.23978,1.20165 -0.71933,1.53789 -0.47956,0.341755 -1.15756,0.512631 -2.03399,0.512631 -0.44097,0 -0.86265,-0.03309 -1.26504,-0.09922 -0.39687,-0.06064 -0.77721,-0.151585 -1.14101,-0.272852 v 1.595768 c 0.12678,0.04964 0.28112,0.09649 0.46302,0.14056 0.18741,0.04962 0.39136,0.09096 0.61185,0.124024 0.22599,0.0386 0.46577,0.06615 0.71933,0.08268 0.25356,0.02207 0.51263,0.03307 0.77722,0.03307 0.46853,0 0.91226,-0.03859 1.33118,-0.115755 0.41892,-0.07166 0.80202,-0.181904 1.14929,-0.330729 0.35277,-0.148829 0.66421,-0.336241 0.93431,-0.56224 0.2756,-0.225999 0.5016,-0.490582 0.67799,-0.79375 0.14883,-0.259075 0.26183,-0.556728 0.339,-0.892969 0.0772,-0.33624 0.11575,-0.738629 0.11575,-1.207161 V 60.42038 h -1.71979 l -0.0827,0.901237 h -0.0331 c -0.24254,-0.319702 -0.55398,-0.581528 -0.93431,-0.785482 -0.38034,-0.20946 -0.8158,-0.314193 -1.30638,-0.314193 z m 10.72389,0 c -0.30868,0 -0.60083,0.03858 -0.87643,0.115755 -0.2701,0.07165 -0.51815,0.168122 -0.74414,0.289389 -0.226,0.121266 -0.4272,0.261826 -0.60358,0.421679 -0.17639,0.159853 -0.32247,0.322458 -0.43822,0.487826 h -0.0331 l -0.1819,-1.116211 h -1.62058 v 8.011914 h 1.95957 v -5.514909 c 0.2701,-0.341754 0.57878,-0.600826 0.92604,-0.777214 0.35278,-0.181901 0.71934,-0.272851 1.09968,-0.272851 0.28663,0 0.52917,0.05512 0.7276,0.165364 0.20395,0.110247 0.35553,0.292143 0.45476,0.545704 0.0441,0.115752 0.0744,0.250803 0.0909,0.405143 0.0165,0.154339 0.0248,0.338997 0.0248,0.553971 v 4.894792 h 1.95957 V 63.23158 c 0,-0.264586 -0.011,-0.496091 -0.0331,-0.694532 -0.0165,-0.203946 -0.0524,-0.391358 -0.10749,-0.562239 -0.0992,-0.308682 -0.23702,-0.573265 -0.41341,-0.79375 -0.17088,-0.225994 -0.36932,-0.407898 -0.59531,-0.545703 -0.226,-0.143328 -0.47681,-0.24806 -0.75241,-0.314193 -0.2701,-0.06613 -0.55122,-0.09922 -0.84336,-0.09922 z m 8.49974,0 c -0.61185,0 -1.16582,0.101979 -1.66192,0.305925 -0.49609,0.19844 -0.92053,0.482314 -1.2733,0.851627 -0.34727,0.369314 -0.61461,0.813038 -0.80202,1.331185 -0.18742,0.518139 -0.28112,1.091404 -0.28112,1.719792 0,0.628385 0.0909,1.20165 0.27285,1.719792 0.18741,0.518138 0.45475,0.961863 0.80202,1.331184 0.34726,0.369314 0.76894,0.65595 1.26504,0.859896 0.5016,0.19844 1.0666,0.297656 1.69498,0.297656 0.61185,0 1.16582,-0.09922 1.66192,-0.297656 0.49609,-0.203946 0.91777,-0.490582 1.26504,-0.859896 0.35277,-0.369321 0.62287,-0.813046 0.81028,-1.331184 0.18742,-0.518142 0.28112,-1.091407 0.28112,-1.719792 0,-0.628388 -0.0937,-1.201653 -0.28112,-1.719792 -0.1819,-0.518147 -0.44648,-0.961871 -0.79375,-1.331185 -0.34726,-0.369313 -0.7717,-0.653187 -1.2733,-0.851627 -0.4961,-0.203946 -1.05834,-0.305925 -1.68672,-0.305925 z m 8.39225,0 c -0.40239,0 -0.78548,0.05236 -1.14928,0.157097 -0.35829,0.104727 -0.67524,0.264583 -0.95085,0.479557 -0.2701,0.214974 -0.48507,0.48782 -0.64492,0.818555 -0.15985,0.325212 -0.23978,0.711065 -0.23978,1.157552 0,0.363799 0.0579,0.672481 0.17363,0.926041 0.12127,0.248047 0.28112,0.45475 0.47956,0.620118 0.20395,0.165367 0.43822,0.300415 0.7028,0.405143 0.26458,0.09922 0.54019,0.187409 0.82682,0.264583 0.226,0.05511 0.44097,0.110231 0.64492,0.165365 0.20946,0.05512 0.39412,0.121263 0.55398,0.198437 0.15985,0.07165 0.28663,0.162605 0.38033,0.272852 0.0992,0.110238 0.14883,0.250798 0.14883,0.421679 v 5.16e-4 c 0,0.165368 -0.0441,0.308682 -0.13229,0.429948 -0.0882,0.115755 -0.20946,0.212215 -0.3638,0.289388 -0.14883,0.07716 -0.32798,0.135033 -0.53744,0.173633 -0.20946,0.03307 -0.43546,0.04961 -0.67799,0.04961 -0.31419,0 -0.65319,-0.02806 -1.01699,-0.0832 -0.36381,-0.06063 -0.76068,-0.170884 -1.19063,-0.330729 v 1.579232 c 0.26459,0.121266 0.59807,0.22049 1.00046,0.297656 0.4079,0.08269 0.8654,0.124023 1.37252,0.124023 0.51263,0 0.98117,-0.05512 1.4056,-0.165364 0.42995,-0.104727 0.79651,-0.26734 1.09968,-0.487826 0.30868,-0.225999 0.54845,-0.507119 0.71933,-0.843359 0.17088,-0.33624 0.25632,-0.730356 0.25632,-1.182357 0,-0.413414 -0.0717,-0.752411 -0.21498,-1.016992 -0.1378,-0.270095 -0.31695,-0.487823 -0.53743,-0.65319 -0.22049,-0.170881 -0.46854,-0.303168 -0.74414,-0.396875 -0.27561,-0.09371 -0.55122,-0.173646 -0.82682,-0.239779 -0.17639,-0.04413 -0.3583,-0.08823 -0.54571,-0.132291 -0.18741,-0.04961 -0.36656,-0.110242 -0.53743,-0.181901 -0.17088,-0.07165 -0.30593,-0.16536 -0.40515,-0.28112 -0.0937,-0.115753 -0.14056,-0.264583 -0.14056,-0.446485 0,-0.104732 0.0221,-0.203948 0.0661,-0.297656 0.0441,-0.09922 0.11576,-0.18466 0.21497,-0.256315 0.0992,-0.0772 0.22876,-0.137835 0.38861,-0.181901 0.15985,-0.04413 0.35553,-0.06615 0.58705,-0.06615 0.18189,0 0.37482,0.01381 0.57877,0.04134 0.20395,0.022 0.4079,0.05235 0.61185,0.09095 0.20946,0.03857 0.41341,0.08543 0.61185,0.14056 0.20395,0.04958 0.39687,0.104698 0.57878,0.165364 v -1.595768 c -0.34727,-0.12678 -0.73588,-0.228751 -1.16582,-0.305924 -0.42995,-0.08268 -0.89022,-0.124024 -1.3808,-0.124024 z m 7.92096,0 c -0.48507,0 -0.95636,0.09095 -1.41386,0.272852 -0.452,0.176392 -0.85439,0.443733 -1.20716,0.802018 -0.35279,0.358286 -0.6339,0.810284 -0.84336,1.35599 -0.20947,0.5457 -0.3142,1.182354 -0.3142,1.909961 0,0.738626 0.11025,1.367009 0.33073,1.885156 0.226,0.518139 0.52917,0.939818 0.90951,1.265039 0.38034,0.325212 0.82407,0.562239 1.33118,0.711068 0.51264,0.143319 1.05282,0.214973 1.62058,0.214973 0.56224,0 1.10518,-0.04961 1.62884,-0.148828 0.52365,-0.09922 0.91226,-0.203954 1.16582,-0.314192 v -1.562696 c -0.42444,0.14332 -0.84336,0.253564 -1.25677,0.33073 -0.41342,0.07717 -0.81029,0.115755 -1.19063,0.115755 -0.34727,0 -0.66973,-0.03583 -0.96738,-0.107487 -0.29766,-0.07717 -0.55948,-0.195681 -0.78548,-0.355534 -0.22049,-0.165359 -0.39963,-0.377582 -0.53744,-0.636654 -0.13782,-0.26458 -0.22051,-0.581527 -0.24805,-0.950846 h 5.25033 c 0.0112,-0.192921 0.0195,-0.427194 0.0248,-0.7028 0,-0.711073 -0.0882,-1.325676 -0.26459,-1.843815 -0.17087,-0.523652 -0.41341,-0.950841 -0.7276,-1.281575 -0.30868,-0.330727 -0.678,-0.573265 -1.10795,-0.727604 -0.42444,-0.15434 -0.89021,-0.231511 -1.39733,-0.231511 z m 9.56635,0 c -0.56776,0 -1.05558,0.118515 -1.46348,0.355534 -0.40239,0.231513 -0.71933,0.551215 -0.95085,0.959115 h -0.0331 l -0.1819,-1.116211 h -1.62057 v 8.011914 h 1.95957 v -5.366081 c 0.24804,-0.369313 0.59807,-0.642167 1.05006,-0.818555 0.45751,-0.181906 0.98668,-0.272851 1.5875,-0.272851 h 0.16537 v -1.719792 c -0.14333,-0.02207 -0.3142,-0.03307 -0.51263,-0.03307 z m -9.59115,1.529623 c 0.24804,0 0.46302,0.04685 0.64492,0.14056 0.18741,0.08819 0.34175,0.212217 0.46302,0.37207 0.12681,0.154339 0.22052,0.336235 0.28112,0.545703 0.0661,0.20946 0.0992,0.432707 0.0992,0.669727 h -3.15019 c 0.0275,-0.23702 0.0827,-0.460267 0.16536,-0.669727 0.0827,-0.209468 0.19293,-0.391364 0.33073,-0.545703 0.14332,-0.159853 0.31144,-0.283877 0.50436,-0.37207 0.19293,-0.09371 0.41341,-0.14056 0.66146,-0.14056 z m -35.15651,0.06614 c 0.34726,0.0055 0.67524,0.09096 0.98392,0.256316 0.30868,0.165367 0.56775,0.37207 0.77721,0.620117 v 3.580143 c -0.0827,0.09371 -0.18466,0.187412 -0.30592,0.28112 -0.11576,0.09371 -0.24805,0.179141 -0.39688,0.256315 -0.14883,0.07718 -0.31144,0.140568 -0.48782,0.190169 -0.17639,0.0496 -0.36381,0.07441 -0.56224,0.07441 -0.30317,0 -0.57051,-0.05788 -0.80202,-0.173633 -0.226,-0.121266 -0.41617,-0.292145 -0.57051,-0.51263 -0.15434,-0.225999 -0.2701,-0.496094 -0.34726,-0.810286 -0.0772,-0.319702 -0.11576,-0.680744 -0.11576,-1.083138 0,-0.3638 0.0276,-0.683509 0.0827,-0.959115 0.0606,-0.275606 0.13781,-0.512627 0.23151,-0.711068 0.0937,-0.198432 0.2012,-0.361045 0.32246,-0.487825 0.12678,-0.132294 0.25907,-0.237019 0.39688,-0.314193 0.1378,-0.07719 0.27285,-0.129564 0.40514,-0.157096 0.13781,-0.03307 0.26734,-0.04961 0.38861,-0.04961 z m -9.210808,0.0083 c 0.292143,0 0.56224,0.05512 0.810287,0.165364 0.248047,0.110247 0.460264,0.275614 0.636653,0.496094 0.176388,0.220485 0.314191,0.493334 0.413412,0.818555 0.09922,0.32522 0.148828,0.700045 0.148828,1.124479 0,0.424434 -0.04961,0.799258 -0.148828,1.124479 -0.09922,0.325213 -0.237024,0.598067 -0.413412,0.818555 -0.176389,0.214974 -0.385852,0.380333 -0.628385,0.496093 -0.242536,0.110239 -0.509876,0.165365 -0.802018,0.165365 -0.292145,0 -0.562242,-0.05513 -0.810287,-0.165365 -0.242535,-0.11576 -0.454752,-0.281119 -0.636653,-0.496093 -0.17639,-0.220488 -0.314193,-0.493342 -0.413412,-0.818555 -0.09922,-0.325221 -0.148828,-0.700045 -0.148828,-1.124479 0,-0.424434 0.04961,-0.799259 0.148828,-1.124479 0.09922,-0.325221 0.237022,-0.59807 0.413412,-0.818555 0.176387,-0.22048 0.38585,-0.385847 0.628385,-0.496094 0.248044,-0.110241 0.515385,-0.165364 0.802018,-0.165364 z m 28.078908,0 c 0.29214,0 0.56224,0.05512 0.81028,0.165364 0.24805,0.110247 0.46027,0.275614 0.63666,0.496094 0.17639,0.220485 0.31419,0.493334 0.41341,0.818555 0.0992,0.32522 0.14883,0.700045 0.14883,1.124479 0,0.424434 -0.0496,0.799258 -0.14883,1.124479 -0.0992,0.325213 -0.23702,0.598067 -0.41341,0.818555 -0.17639,0.214974 -0.38585,0.380333 -0.62839,0.496093 -0.24253,0.110239 -0.50987,0.165365 -0.80202,0.165365 -0.29214,0 -0.56224,-0.05513 -0.81028,-0.165365 -0.24254,-0.11576 -0.45476,-0.281119 -0.63666,-0.496093 -0.17639,-0.220488 -0.31419,-0.493342 -0.41341,-0.818555 -0.0992,-0.325221 -0.14882,-0.700045 -0.14882,-1.124479 0,-0.424434 0.0496,-0.799259 0.14882,-1.124479 0.0992,-0.325221 0.23702,-0.59807 0.41341,-0.818555 0.17639,-0.22048 0.38585,-0.385847 0.62839,-0.496094 0.24804,-0.110241 0.51538,-0.165364 0.80202,-0.165364 z"
             id="path14"
             inkscape:connector-curvature="0" />
        </g>
      </g>
    </g>
  </g>
</svg>
